<?xml version="1.0" standalone="no"?>
<!DOCTYPE svg PUBLIC "-//W3C//DTD SVG 20010904//EN"
 "http://www.w3.org/TR/2001/REC-SVG-20010904/DTD/svg10.dtd">
<svg version="1.0" xmlns="http://www.w3.org/2000/svg"
 width="260.000000pt" height="260.000000pt" viewBox="0 0 260.000000 260.000000"
 preserveAspectRatio="xMidYMid meet">
<metadata>
Created by potrace 1.11, written by Peter Selinger 2001-2013
</metadata>
<g transform="translate(0.000000,260.000000) scale(0.100000,-0.100000)"
fill="#000000" stroke="none">
<path d="M755 2075 c-74 -16 -138 -43 -211 -90 -66 -43 -68 -44 -146 -117 -60
-56 -61 -57 -56 -103 13 -113 117 -136 213 -47 120 109 223 153 347 148 98 -5
177 -32 342 -117 160 -82 240 -114 337 -134 199 -42 360 -3 534 130 91 69 119
95 133 122 28 52 2 126 -53 148 -55 24 -89 9 -189 -80 -49 -44 -157 -100 -213
-110 -103 -18 -233 9 -360 73 -272 138 -314 156 -418 177 -63 13 -202 13 -260
0z"/>
<path d="M765 1533 c-38 -8 -102 -30 -141 -48 -87 -42 -248 -164 -269 -205
-40 -77 7 -159 91 -160 36 0 80 21 104 50 20 24 124 97 166 116 155 71 276 51
549 -91 148 -77 238 -111 340 -129 142 -25 272 -5 395 59 83 45 225 157 245
195 41 80 -11 160 -104 160 -17 0 -53 -22 -101 -61 -95 -76 -146 -107 -217
-129 -56 -17 -168 -21 -191 -6 -7 4 -12 5 -12 2 0 -13 -154 51 -265 109 -258
135 -419 172 -590 138z"/>
<path d="M845 1000 c-11 -4 -23 -6 -27 -3 -14 8 -143 -30 -201 -59 -74 -37
-179 -113 -249 -180 -41 -40 -33 -126 14 -161 15 -11 43 -21 63 -22 31 -2 48
7 122 65 90 72 165 117 211 128 15 4 61 7 102 7 121 0 168 -14 347 -106 76
-39 160 -80 188 -91 227 -93 440 -86 613 20 86 52 198 142 216 174 31 51 15
117 -36 148 -49 30 -89 20 -166 -44 -147 -119 -227 -152 -352 -143 -94 6 -189
40 -345 122 -178 94 -286 131 -405 141 -30 2 -59 6 -65 8 -5 2 -19 0 -30 -4z"/>
</g>
</svg>
